<mxfile host="app.diagrams.net" modified="2022-09-05T11:39:45.374Z" agent="5.0 (Windows NT 10.0; Win64; x64) AppleWebKit/537.36 (KHTML, like Gecko) Chrome/105.0.0.0 Safari/537.36" etag="kYRbDIBecShfkdnRCh2X" version="20.2.8" type="github" pages="3">
  <diagram id="H8gk_1Iewv1tI3h8Hupk" name="simple shell ui">
    <mxGraphModel dx="2324" dy="2185" grid="1" gridSize="10" guides="1" tooltips="1" connect="1" arrows="1" fold="1" page="1" pageScale="1" pageWidth="827" pageHeight="1169" math="0" shadow="0">
      <root>
        <mxCell id="0" />
        <mxCell id="1" parent="0" />
        <mxCell id="znyuFyb44LIAEL0sy8Fv-4" value="Exit" style="strokeWidth=2;html=1;shape=mxgraph.flowchart.terminator;whiteSpace=wrap;hachureGap=4;" parent="1" vertex="1">
          <mxGeometry x="333" y="-245" width="143" height="56" as="geometry" />
        </mxCell>
        <mxCell id="znyuFyb44LIAEL0sy8Fv-26" style="edgeStyle=none;curved=1;rounded=0;orthogonalLoop=1;jettySize=auto;html=1;entryX=0.5;entryY=0;entryDx=0;entryDy=0;endArrow=open;startSize=14;endSize=14;sourcePerimeterSpacing=8;targetPerimeterSpacing=8;" parent="1" source="znyuFyb44LIAEL0sy8Fv-5" target="znyuFyb44LIAEL0sy8Fv-7" edge="1">
          <mxGeometry relative="1" as="geometry" />
        </mxCell>
        <mxCell id="znyuFyb44LIAEL0sy8Fv-5" value="start" style="strokeWidth=2;html=1;shape=mxgraph.flowchart.terminator;whiteSpace=wrap;hachureGap=4;" parent="1" vertex="1">
          <mxGeometry x="360.5" y="-1064" width="81" height="27" as="geometry" />
        </mxCell>
        <mxCell id="znyuFyb44LIAEL0sy8Fv-27" style="edgeStyle=none;curved=1;rounded=0;orthogonalLoop=1;jettySize=auto;html=1;entryX=0.5;entryY=0;entryDx=0;entryDy=0;endArrow=open;startSize=14;endSize=14;sourcePerimeterSpacing=8;targetPerimeterSpacing=8;" parent="1" source="znyuFyb44LIAEL0sy8Fv-7" target="znyuFyb44LIAEL0sy8Fv-12" edge="1">
          <mxGeometry relative="1" as="geometry" />
        </mxCell>
        <mxCell id="znyuFyb44LIAEL0sy8Fv-7" value="Create buffer for input and check for malloc" style="rounded=0;whiteSpace=wrap;html=1;hachureGap=4;" parent="1" vertex="1">
          <mxGeometry x="338.5" y="-989" width="125" height="27" as="geometry" />
        </mxCell>
        <mxCell id="znyuFyb44LIAEL0sy8Fv-29" value="Yes" style="edgeStyle=none;curved=1;rounded=0;orthogonalLoop=1;jettySize=auto;html=1;endArrow=open;startSize=14;endSize=14;sourcePerimeterSpacing=8;targetPerimeterSpacing=8;entryX=0.5;entryY=0;entryDx=0;entryDy=0;" parent="1" source="znyuFyb44LIAEL0sy8Fv-6" target="znyuFyb44LIAEL0sy8Fv-13" edge="1">
          <mxGeometry relative="1" as="geometry">
            <mxPoint x="395" y="-688" as="targetPoint" />
          </mxGeometry>
        </mxCell>
        <mxCell id="znyuFyb44LIAEL0sy8Fv-36" style="edgeStyle=elbowEdgeStyle;rounded=0;orthogonalLoop=1;jettySize=auto;html=1;entryX=1;entryY=0.5;entryDx=0;entryDy=0;entryPerimeter=0;endArrow=open;startSize=14;endSize=14;sourcePerimeterSpacing=8;targetPerimeterSpacing=8;" parent="1" source="znyuFyb44LIAEL0sy8Fv-6" target="znyuFyb44LIAEL0sy8Fv-4" edge="1">
          <mxGeometry relative="1" as="geometry">
            <Array as="points">
              <mxPoint x="714" y="-505" />
              <mxPoint x="660" y="-196" />
              <mxPoint x="783" y="-536" />
            </Array>
          </mxGeometry>
        </mxCell>
        <mxCell id="znyuFyb44LIAEL0sy8Fv-6" value="Input Fetched correctly?" style="strokeWidth=2;html=1;shape=mxgraph.flowchart.decision;whiteSpace=wrap;hachureGap=4;" parent="1" vertex="1">
          <mxGeometry x="350.5" y="-841" width="101" height="81" as="geometry" />
        </mxCell>
        <mxCell id="znyuFyb44LIAEL0sy8Fv-28" style="edgeStyle=none;curved=1;rounded=0;orthogonalLoop=1;jettySize=auto;html=1;endArrow=open;startSize=14;endSize=14;sourcePerimeterSpacing=8;targetPerimeterSpacing=8;" parent="1" source="znyuFyb44LIAEL0sy8Fv-12" target="znyuFyb44LIAEL0sy8Fv-6" edge="1">
          <mxGeometry relative="1" as="geometry" />
        </mxCell>
        <mxCell id="znyuFyb44LIAEL0sy8Fv-12" value="Prompt for&lt;br&gt;&amp;nbsp;input" style="shape=parallelogram;html=1;strokeWidth=2;perimeter=parallelogramPerimeter;whiteSpace=wrap;rounded=1;arcSize=12;size=0.23;hachureGap=4;" parent="1" vertex="1">
          <mxGeometry x="354" y="-915" width="94" height="28" as="geometry" />
        </mxCell>
        <mxCell id="znyuFyb44LIAEL0sy8Fv-30" style="edgeStyle=none;curved=1;rounded=0;orthogonalLoop=1;jettySize=auto;html=1;endArrow=open;startSize=14;endSize=14;sourcePerimeterSpacing=8;targetPerimeterSpacing=8;entryX=0.5;entryY=0;entryDx=0;entryDy=0;entryPerimeter=0;" parent="1" source="znyuFyb44LIAEL0sy8Fv-13" target="znyuFyb44LIAEL0sy8Fv-14" edge="1">
          <mxGeometry relative="1" as="geometry" />
        </mxCell>
        <mxCell id="znyuFyb44LIAEL0sy8Fv-13" value="Fork()" style="rounded=1;whiteSpace=wrap;html=1;absoluteArcSize=1;arcSize=14;strokeWidth=2;hachureGap=4;" parent="1" vertex="1">
          <mxGeometry x="350.5" y="-702" width="105" height="50" as="geometry" />
        </mxCell>
        <mxCell id="znyuFyb44LIAEL0sy8Fv-31" value="No" style="edgeStyle=none;curved=1;rounded=0;orthogonalLoop=1;jettySize=auto;html=1;entryX=0.5;entryY=0;entryDx=0;entryDy=0;endArrow=open;startSize=14;endSize=14;sourcePerimeterSpacing=8;targetPerimeterSpacing=8;" parent="1" source="znyuFyb44LIAEL0sy8Fv-14" target="znyuFyb44LIAEL0sy8Fv-16" edge="1">
          <mxGeometry relative="1" as="geometry" />
        </mxCell>
        <mxCell id="znyuFyb44LIAEL0sy8Fv-34" style="rounded=0;orthogonalLoop=1;jettySize=auto;html=1;endArrow=open;startSize=14;endSize=14;sourcePerimeterSpacing=8;targetPerimeterSpacing=8;" parent="1" source="znyuFyb44LIAEL0sy8Fv-14" target="znyuFyb44LIAEL0sy8Fv-15" edge="1">
          <mxGeometry relative="1" as="geometry" />
        </mxCell>
        <mxCell id="znyuFyb44LIAEL0sy8Fv-14" value="Is this the parent&lt;br&gt;&amp;nbsp;process?" style="strokeWidth=2;html=1;shape=mxgraph.flowchart.decision;whiteSpace=wrap;hachureGap=4;" parent="1" vertex="1">
          <mxGeometry x="338.5" y="-600" width="130" height="101" as="geometry" />
        </mxCell>
        <mxCell id="znyuFyb44LIAEL0sy8Fv-35" style="edgeStyle=elbowEdgeStyle;rounded=0;orthogonalLoop=1;jettySize=auto;html=1;entryX=0;entryY=0.5;entryDx=0;entryDy=0;entryPerimeter=0;endArrow=open;startSize=14;endSize=14;sourcePerimeterSpacing=8;targetPerimeterSpacing=8;" parent="1" source="znyuFyb44LIAEL0sy8Fv-15" target="znyuFyb44LIAEL0sy8Fv-6" edge="1">
          <mxGeometry relative="1" as="geometry">
            <Array as="points">
              <mxPoint x="225" y="-721" />
            </Array>
          </mxGeometry>
        </mxCell>
        <mxCell id="znyuFyb44LIAEL0sy8Fv-15" value="Wait for child process&lt;br&gt;then print prompt for input&amp;nbsp;&lt;br&gt;($)" style="rounded=0;whiteSpace=wrap;html=1;hachureGap=4;" parent="1" vertex="1">
          <mxGeometry x="160" y="-585" width="129" height="71" as="geometry" />
        </mxCell>
        <mxCell id="znyuFyb44LIAEL0sy8Fv-32" style="edgeStyle=none;curved=1;rounded=0;orthogonalLoop=1;jettySize=auto;html=1;endArrow=open;startSize=14;endSize=14;sourcePerimeterSpacing=8;targetPerimeterSpacing=8;" parent="1" source="znyuFyb44LIAEL0sy8Fv-16" target="znyuFyb44LIAEL0sy8Fv-17" edge="1">
          <mxGeometry relative="1" as="geometry" />
        </mxCell>
        <mxCell id="znyuFyb44LIAEL0sy8Fv-16" value="Add null terminator to&lt;br&gt;user input" style="rounded=0;whiteSpace=wrap;html=1;hachureGap=4;" parent="1" vertex="1">
          <mxGeometry x="357.5" y="-421" width="94" height="77" as="geometry" />
        </mxCell>
        <mxCell id="znyuFyb44LIAEL0sy8Fv-33" style="edgeStyle=orthogonalEdgeStyle;rounded=0;orthogonalLoop=1;jettySize=auto;html=1;entryX=1;entryY=0.5;entryDx=0;entryDy=0;entryPerimeter=0;endArrow=open;startSize=14;endSize=14;sourcePerimeterSpacing=8;targetPerimeterSpacing=8;" parent="1" source="znyuFyb44LIAEL0sy8Fv-17" target="znyuFyb44LIAEL0sy8Fv-14" edge="1">
          <mxGeometry relative="1" as="geometry">
            <Array as="points">
              <mxPoint x="621" y="-524" />
              <mxPoint x="608" y="-524" />
              <mxPoint x="608" y="-549" />
            </Array>
          </mxGeometry>
        </mxCell>
        <mxCell id="znyuFyb44LIAEL0sy8Fv-17" value="Run execve using&lt;br&gt;input&lt;br&gt;(page 2)" style="verticalLabelPosition=bottom;verticalAlign=top;html=1;shape=process;whiteSpace=wrap;rounded=1;size=0.14;arcSize=6;hachureGap=4;container=0;" parent="1" vertex="1">
          <mxGeometry x="556" y="-421" width="104" height="61" as="geometry" />
        </mxCell>
        <mxCell id="znyuFyb44LIAEL0sy8Fv-39" value="&lt;b&gt;Control flow for simple shell&lt;/b&gt;" style="text;strokeColor=none;fillColor=none;html=1;align=center;verticalAlign=middle;whiteSpace=wrap;rounded=0;hachureGap=4;" parent="1" vertex="1">
          <mxGeometry x="212" y="-1120" width="420" height="60" as="geometry" />
        </mxCell>
        <mxCell id="N48IQEV5aVHkFBYOkvRF-1" value="" style="verticalLabelPosition=bottom;verticalAlign=top;html=1;shape=offPageConnector;rounded=0;size=0.4982265142746883;hachureGap=4;" parent="1" vertex="1">
          <mxGeometry x="592" y="-554" width="40" height="45" as="geometry" />
        </mxCell>
      </root>
    </mxGraphModel>
  </diagram>
  <diagram id="YEnseQyV4-9LpWxcOC7I" name="execve call">
    <mxGraphModel dx="1820" dy="7421" grid="1" gridSize="10" guides="1" tooltips="1" connect="1" arrows="1" fold="1" page="0" pageScale="1" pageWidth="827" pageHeight="1169" math="0" shadow="0">
      <root>
        <mxCell id="0" />
        <mxCell id="1" parent="0" />
        <mxCell id="dfXtzP827kClXNAQz8Dz-1" value="" style="group" vertex="1" connectable="0" parent="1">
          <mxGeometry x="-220" y="-6770" width="1100" height="2020" as="geometry" />
        </mxCell>
        <mxCell id="1hh7Vr48_Mn_of9_-KRv-2" value="stop" style="strokeWidth=2;html=1;shape=mxgraph.flowchart.start_1;whiteSpace=wrap;hachureGap=4;" parent="dfXtzP827kClXNAQz8Dz-1" vertex="1">
          <mxGeometry x="232.80423280423275" y="1923.0400000000004" width="232.80423280423275" height="96.96000000000002" as="geometry" />
        </mxCell>
        <mxCell id="vk47CyYh6-PgTjRSOOQR-11" style="rounded=0;orthogonalLoop=1;jettySize=auto;html=1;endArrow=open;startSize=14;endSize=14;sourcePerimeterSpacing=8;targetPerimeterSpacing=8;" parent="dfXtzP827kClXNAQz8Dz-1" source="1hh7Vr48_Mn_of9_-KRv-3" edge="1">
          <mxGeometry relative="1" as="geometry">
            <mxPoint x="861.3756613756613" y="646.4000000000001" as="targetPoint" />
          </mxGeometry>
        </mxCell>
        <mxCell id="1hh7Vr48_Mn_of9_-KRv-3" value="call _which on argv[0] to know path to binary" style="verticalLabelPosition=bottom;verticalAlign=top;html=1;shape=process;whiteSpace=wrap;rounded=1;size=0.2543859649122807;arcSize=6;hachureGap=4;" parent="dfXtzP827kClXNAQz8Dz-1" vertex="1">
          <mxGeometry x="69.84126984126983" y="597.9200000000001" width="331.7460317460318" height="96.96000000000002" as="geometry" />
        </mxCell>
        <mxCell id="1hh7Vr48_Mn_of9_-KRv-4" value="exit failure" style="rounded=1;whiteSpace=wrap;html=1;absoluteArcSize=1;arcSize=14;strokeWidth=2;hachureGap=4;" parent="dfXtzP827kClXNAQz8Dz-1" vertex="1">
          <mxGeometry x="616.931216931217" y="1519.0400000000004" width="302.6455026455027" height="80.80000000000001" as="geometry" />
        </mxCell>
        <mxCell id="vk47CyYh6-PgTjRSOOQR-8" style="edgeStyle=elbowEdgeStyle;rounded=0;orthogonalLoop=1;jettySize=auto;html=1;endArrow=open;startSize=14;endSize=14;sourcePerimeterSpacing=8;targetPerimeterSpacing=8;" parent="dfXtzP827kClXNAQz8Dz-1" source="1hh7Vr48_Mn_of9_-KRv-5" target="1hh7Vr48_Mn_of9_-KRv-3" edge="1">
          <mxGeometry relative="1" as="geometry" />
        </mxCell>
        <mxCell id="1hh7Vr48_Mn_of9_-KRv-5" value="Given a string input,&lt;br&gt;tokenize it into a null&lt;br&gt;terminated array&lt;br&gt;argv" style="rounded=1;whiteSpace=wrap;html=1;absoluteArcSize=1;arcSize=14;strokeWidth=2;hachureGap=4;rotation=0;" parent="dfXtzP827kClXNAQz8Dz-1" vertex="1">
          <mxGeometry y="274.72" width="337.5661375661375" height="129.28000000000003" as="geometry" />
        </mxCell>
        <mxCell id="1hh7Vr48_Mn_of9_-KRv-6" value="print cause&amp;nbsp;&lt;br&gt;of error" style="shape=parallelogram;html=1;strokeWidth=2;perimeter=parallelogramPerimeter;whiteSpace=wrap;rounded=1;arcSize=12;size=0.23;hachureGap=4;" parent="dfXtzP827kClXNAQz8Dz-1" vertex="1">
          <mxGeometry x="651.8518518518517" y="1729.1200000000006" width="232.80423280423275" height="96.96000000000002" as="geometry" />
        </mxCell>
        <mxCell id="vk47CyYh6-PgTjRSOOQR-25" style="edgeStyle=elbowEdgeStyle;rounded=0;orthogonalLoop=1;jettySize=auto;html=1;entryX=0.5;entryY=0;entryDx=0;entryDy=0;endArrow=open;startSize=14;endSize=14;sourcePerimeterSpacing=8;targetPerimeterSpacing=8;" parent="dfXtzP827kClXNAQz8Dz-1" source="1hh7Vr48_Mn_of9_-KRv-4" target="1hh7Vr48_Mn_of9_-KRv-6" edge="1">
          <mxGeometry relative="1" as="geometry" />
        </mxCell>
        <mxCell id="vk47CyYh6-PgTjRSOOQR-7" style="edgeStyle=elbowEdgeStyle;rounded=0;orthogonalLoop=1;jettySize=auto;html=1;endArrow=open;startSize=14;endSize=14;sourcePerimeterSpacing=8;targetPerimeterSpacing=8;" parent="dfXtzP827kClXNAQz8Dz-1" source="1hh7Vr48_Mn_of9_-KRv-7" target="1hh7Vr48_Mn_of9_-KRv-5" edge="1">
          <mxGeometry relative="1" as="geometry" />
        </mxCell>
        <mxCell id="1hh7Vr48_Mn_of9_-KRv-7" value="Start" style="strokeWidth=2;html=1;shape=mxgraph.flowchart.start_1;whiteSpace=wrap;hachureGap=4;" parent="dfXtzP827kClXNAQz8Dz-1" vertex="1">
          <mxGeometry x="139.68253968253967" y="80.80000000000001" width="232.80423280423275" height="96.96000000000002" as="geometry" />
        </mxCell>
        <mxCell id="vk47CyYh6-PgTjRSOOQR-1" value="exit success" style="rounded=1;whiteSpace=wrap;html=1;absoluteArcSize=1;arcSize=14;strokeWidth=2;hachureGap=4;" parent="dfXtzP827kClXNAQz8Dz-1" vertex="1">
          <mxGeometry x="197.88359788359787" y="1502.8800000000003" width="302.6455026455027" height="113.12000000000002" as="geometry" />
        </mxCell>
        <mxCell id="vk47CyYh6-PgTjRSOOQR-2" value="give int result value of&lt;br&gt;execve call using argv and environment" style="rounded=1;whiteSpace=wrap;html=1;absoluteArcSize=1;arcSize=14;strokeWidth=2;hachureGap=4;" parent="dfXtzP827kClXNAQz8Dz-1" vertex="1">
          <mxGeometry x="209.5238095238095" y="1066.5600000000002" width="331.7460317460318" height="96.96000000000002" as="geometry" />
        </mxCell>
        <mxCell id="vk47CyYh6-PgTjRSOOQR-4" value="page 3" style="verticalLabelPosition=bottom;verticalAlign=top;html=1;shape=offPageConnector;rounded=0;size=0.5;hachureGap=4;" parent="dfXtzP827kClXNAQz8Dz-1" vertex="1">
          <mxGeometry x="864.2857142857143" y="614.08" width="139.68253968253967" height="96.96000000000002" as="geometry" />
        </mxCell>
        <mxCell id="vk47CyYh6-PgTjRSOOQR-28" value="no, it&#39;s &amp;gt; 0" style="edgeStyle=elbowEdgeStyle;rounded=0;orthogonalLoop=1;jettySize=auto;html=1;endArrow=open;startSize=14;endSize=14;sourcePerimeterSpacing=8;targetPerimeterSpacing=8;" parent="dfXtzP827kClXNAQz8Dz-1" source="vk47CyYh6-PgTjRSOOQR-5" target="vk47CyYh6-PgTjRSOOQR-1" edge="1">
          <mxGeometry relative="1" as="geometry" />
        </mxCell>
        <mxCell id="vk47CyYh6-PgTjRSOOQR-5" value="&amp;nbsp;result &amp;lt; 0&lt;br&gt;?" style="strokeWidth=2;html=1;shape=mxgraph.flowchart.decision;whiteSpace=wrap;hachureGap=4;" parent="dfXtzP827kClXNAQz8Dz-1" vertex="1">
          <mxGeometry x="250.26455026455028" y="1244.3200000000002" width="209.5238095238095" height="161.60000000000002" as="geometry" />
        </mxCell>
        <mxCell id="vk47CyYh6-PgTjRSOOQR-19" style="edgeStyle=elbowEdgeStyle;rounded=0;orthogonalLoop=1;jettySize=auto;html=1;endArrow=open;startSize=14;endSize=14;sourcePerimeterSpacing=8;targetPerimeterSpacing=8;" parent="dfXtzP827kClXNAQz8Dz-1" source="vk47CyYh6-PgTjRSOOQR-2" target="vk47CyYh6-PgTjRSOOQR-5" edge="1">
          <mxGeometry relative="1" as="geometry" />
        </mxCell>
        <mxCell id="vk47CyYh6-PgTjRSOOQR-14" value="No, it has input" style="edgeStyle=elbowEdgeStyle;rounded=0;orthogonalLoop=1;jettySize=auto;html=1;entryX=0.5;entryY=0;entryDx=0;entryDy=0;endArrow=open;startSize=14;endSize=14;sourcePerimeterSpacing=8;targetPerimeterSpacing=8;elbow=vertical;" parent="dfXtzP827kClXNAQz8Dz-1" source="vk47CyYh6-PgTjRSOOQR-6" target="vk47CyYh6-PgTjRSOOQR-2" edge="1">
          <mxGeometry relative="1" as="geometry">
            <Array as="points">
              <mxPoint x="419.047619047619" y="929.2000000000002" />
              <mxPoint x="442.3280423280423" y="937.2800000000003" />
              <mxPoint x="512.1693121693121" y="937.2800000000003" />
            </Array>
          </mxGeometry>
        </mxCell>
        <mxCell id="vk47CyYh6-PgTjRSOOQR-6" value="is path to binary&lt;br&gt;equal to&amp;nbsp;&lt;br&gt;NULL&lt;br&gt;?" style="strokeWidth=2;html=1;shape=mxgraph.flowchart.decision;whiteSpace=wrap;hachureGap=4;" parent="dfXtzP827kClXNAQz8Dz-1" vertex="1">
          <mxGeometry x="768.2539682539682" y="824.1600000000002" width="331.7460317460318" height="210.08" as="geometry" />
        </mxCell>
        <mxCell id="vk47CyYh6-PgTjRSOOQR-12" style="edgeStyle=elbowEdgeStyle;rounded=0;orthogonalLoop=1;jettySize=auto;html=1;endArrow=open;startSize=14;endSize=14;sourcePerimeterSpacing=8;targetPerimeterSpacing=8;" parent="dfXtzP827kClXNAQz8Dz-1" source="vk47CyYh6-PgTjRSOOQR-4" target="vk47CyYh6-PgTjRSOOQR-6" edge="1">
          <mxGeometry relative="1" as="geometry" />
        </mxCell>
        <mxCell id="vk47CyYh6-PgTjRSOOQR-24" style="edgeStyle=elbowEdgeStyle;rounded=0;orthogonalLoop=1;jettySize=auto;html=1;entryX=0.5;entryY=0;entryDx=0;entryDy=0;endArrow=open;startSize=14;endSize=14;sourcePerimeterSpacing=8;targetPerimeterSpacing=8;" parent="dfXtzP827kClXNAQz8Dz-1" source="vk47CyYh6-PgTjRSOOQR-15" target="1hh7Vr48_Mn_of9_-KRv-4" edge="1">
          <mxGeometry relative="1" as="geometry" />
        </mxCell>
        <mxCell id="vk47CyYh6-PgTjRSOOQR-15" value="" style="verticalLabelPosition=bottom;verticalAlign=top;html=1;shape=mxgraph.flowchart.on-page_reference;hachureGap=4;" parent="dfXtzP827kClXNAQz8Dz-1" vertex="1">
          <mxGeometry x="744.9735449735449" y="1308.9600000000003" width="46.56084656084656" height="32.32000000000001" as="geometry" />
        </mxCell>
        <mxCell id="vk47CyYh6-PgTjRSOOQR-22" value="yes &amp;lt; 0" style="edgeStyle=elbowEdgeStyle;rounded=0;orthogonalLoop=1;jettySize=auto;html=1;entryX=0;entryY=0.5;entryDx=0;entryDy=0;entryPerimeter=0;endArrow=open;startSize=14;endSize=14;sourcePerimeterSpacing=8;targetPerimeterSpacing=8;" parent="dfXtzP827kClXNAQz8Dz-1" source="vk47CyYh6-PgTjRSOOQR-5" target="vk47CyYh6-PgTjRSOOQR-15" edge="1">
          <mxGeometry relative="1" as="geometry" />
        </mxCell>
        <mxCell id="vk47CyYh6-PgTjRSOOQR-33" value="yes" style="edgeStyle=elbowEdgeStyle;rounded=0;orthogonalLoop=1;jettySize=auto;elbow=vertical;html=1;entryX=0.855;entryY=0.145;entryDx=0;entryDy=0;entryPerimeter=0;endArrow=open;startSize=14;endSize=14;sourcePerimeterSpacing=8;targetPerimeterSpacing=8;" parent="dfXtzP827kClXNAQz8Dz-1" source="vk47CyYh6-PgTjRSOOQR-6" target="vk47CyYh6-PgTjRSOOQR-15" edge="1">
          <mxGeometry relative="1" as="geometry" />
        </mxCell>
        <mxCell id="vk47CyYh6-PgTjRSOOQR-32" style="edgeStyle=elbowEdgeStyle;rounded=0;orthogonalLoop=1;jettySize=auto;html=1;endArrow=open;startSize=14;endSize=14;sourcePerimeterSpacing=8;targetPerimeterSpacing=8;" parent="dfXtzP827kClXNAQz8Dz-1" source="vk47CyYh6-PgTjRSOOQR-26" target="1hh7Vr48_Mn_of9_-KRv-2" edge="1">
          <mxGeometry relative="1" as="geometry" />
        </mxCell>
        <mxCell id="vk47CyYh6-PgTjRSOOQR-26" value="" style="verticalLabelPosition=bottom;verticalAlign=top;html=1;shape=mxgraph.flowchart.on-page_reference;hachureGap=4;" parent="dfXtzP827kClXNAQz8Dz-1" vertex="1">
          <mxGeometry x="325.92592592592587" y="1761.4400000000003" width="46.56084656084656" height="32.32000000000001" as="geometry" />
        </mxCell>
        <mxCell id="vk47CyYh6-PgTjRSOOQR-31" style="edgeStyle=elbowEdgeStyle;rounded=0;orthogonalLoop=1;jettySize=auto;html=1;entryX=1;entryY=0.5;entryDx=0;entryDy=0;entryPerimeter=0;endArrow=open;startSize=14;endSize=14;sourcePerimeterSpacing=8;targetPerimeterSpacing=8;" parent="dfXtzP827kClXNAQz8Dz-1" source="1hh7Vr48_Mn_of9_-KRv-6" target="vk47CyYh6-PgTjRSOOQR-26" edge="1">
          <mxGeometry relative="1" as="geometry" />
        </mxCell>
        <mxCell id="vk47CyYh6-PgTjRSOOQR-30" style="edgeStyle=elbowEdgeStyle;rounded=0;orthogonalLoop=1;jettySize=auto;html=1;entryX=0.5;entryY=0;entryDx=0;entryDy=0;entryPerimeter=0;endArrow=open;startSize=14;endSize=14;sourcePerimeterSpacing=8;targetPerimeterSpacing=8;" parent="dfXtzP827kClXNAQz8Dz-1" source="vk47CyYh6-PgTjRSOOQR-1" target="vk47CyYh6-PgTjRSOOQR-26" edge="1">
          <mxGeometry relative="1" as="geometry" />
        </mxCell>
        <mxCell id="2i3fVC9TQv7fx0amMykV-1" value="&lt;b&gt;Control Flow For Execve custom fucntion&lt;/b&gt;" style="text;html=1;strokeColor=none;fillColor=none;align=center;verticalAlign=middle;whiteSpace=wrap;rounded=0;" parent="dfXtzP827kClXNAQz8Dz-1" vertex="1">
          <mxGeometry x="69.84126984126983" width="721.6931216931216" height="48.48000000000001" as="geometry" />
        </mxCell>
      </root>
    </mxGraphModel>
  </diagram>
  <diagram id="GHaaUFylHIDIWzFUqSoz" name="_which">
    <mxGraphModel dx="2478" dy="1359" grid="1" gridSize="10" guides="1" tooltips="1" connect="1" arrows="1" fold="1" page="0" pageScale="1" pageWidth="827" pageHeight="1169" math="0" shadow="0">
      <root>
        <mxCell id="0" />
        <mxCell id="1" parent="0" />
        <mxCell id="9_OVkmjQnJQ1SJPTuwnR-25" style="edgeStyle=orthogonalEdgeStyle;rounded=0;orthogonalLoop=1;jettySize=auto;html=1;" parent="1" source="9_OVkmjQnJQ1SJPTuwnR-1" target="9_OVkmjQnJQ1SJPTuwnR-5" edge="1">
          <mxGeometry relative="1" as="geometry" />
        </mxCell>
        <mxCell id="9_OVkmjQnJQ1SJPTuwnR-26" style="rounded=0;orthogonalLoop=1;jettySize=auto;html=1;entryX=0.5;entryY=0;entryDx=0;entryDy=0;entryPerimeter=0;" parent="1" source="9_OVkmjQnJQ1SJPTuwnR-5" target="9_OVkmjQnJQ1SJPTuwnR-6" edge="1">
          <mxGeometry relative="1" as="geometry" />
        </mxCell>
        <mxCell id="9_OVkmjQnJQ1SJPTuwnR-5" value="Check to see if the command is in executable form&lt;br&gt;&lt;br&gt;i.e this checks if cmd[0] is a path to an executable&lt;br&gt;in the system" style="rounded=1;whiteSpace=wrap;html=1;absoluteArcSize=1;arcSize=14;strokeWidth=2;" parent="1" vertex="1">
          <mxGeometry x="-190" y="-510" width="300" height="100" as="geometry" />
        </mxCell>
        <mxCell id="9_OVkmjQnJQ1SJPTuwnR-32" value="No" style="edgeStyle=orthogonalEdgeStyle;rounded=0;orthogonalLoop=1;jettySize=auto;html=1;" parent="1" source="9_OVkmjQnJQ1SJPTuwnR-6" target="9_OVkmjQnJQ1SJPTuwnR-7" edge="1">
          <mxGeometry relative="1" as="geometry" />
        </mxCell>
        <mxCell id="9_OVkmjQnJQ1SJPTuwnR-47" value="Yes" style="edgeStyle=elbowEdgeStyle;rounded=0;orthogonalLoop=1;jettySize=auto;html=1;entryX=0.5;entryY=0;entryDx=0;entryDy=0;entryPerimeter=0;elbow=vertical;exitX=0;exitY=0.5;exitDx=0;exitDy=0;exitPerimeter=0;" parent="1" source="9_OVkmjQnJQ1SJPTuwnR-6" target="9_OVkmjQnJQ1SJPTuwnR-46" edge="1">
          <mxGeometry relative="1" as="geometry">
            <Array as="points">
              <mxPoint x="-450" y="-190" />
              <mxPoint x="-220" y="-150" />
              <mxPoint x="-490" y="-120" />
            </Array>
          </mxGeometry>
        </mxCell>
        <mxCell id="9_OVkmjQnJQ1SJPTuwnR-6" value="is cmd[0] executable?" style="strokeWidth=2;html=1;shape=mxgraph.flowchart.decision;whiteSpace=wrap;" parent="1" vertex="1">
          <mxGeometry x="-140" y="-290" width="200" height="200" as="geometry" />
        </mxCell>
        <mxCell id="9_OVkmjQnJQ1SJPTuwnR-28" style="edgeStyle=orthogonalEdgeStyle;rounded=0;orthogonalLoop=1;jettySize=auto;html=1;entryX=0;entryY=0.5;entryDx=0;entryDy=0;entryPerimeter=0;" parent="1" source="9_OVkmjQnJQ1SJPTuwnR-7" target="9_OVkmjQnJQ1SJPTuwnR-8" edge="1">
          <mxGeometry relative="1" as="geometry" />
        </mxCell>
        <mxCell id="9_OVkmjQnJQ1SJPTuwnR-7" value="1. allocate memory to a variable named path_array which will be&amp;nbsp;&lt;span style=&quot;background-color: initial;&quot;&gt;used to store various paths to binaries in the computer as strings&lt;br&gt;2. allocate memory to a variable named temp that will be used to store the possible paths to the executable that the which function is looking for&lt;br&gt;3. check to see if the malloc function worked okay&lt;br&gt;&lt;/span&gt;" style="rounded=1;whiteSpace=wrap;html=1;absoluteArcSize=1;arcSize=14;strokeWidth=2;align=left;" parent="1" vertex="1">
          <mxGeometry x="-330" y="-20" width="240" height="200" as="geometry" />
        </mxCell>
        <mxCell id="9_OVkmjQnJQ1SJPTuwnR-29" value="Yes" style="edgeStyle=orthogonalEdgeStyle;rounded=0;orthogonalLoop=1;jettySize=auto;html=1;entryX=0.5;entryY=0;entryDx=0;entryDy=0;" parent="1" source="9_OVkmjQnJQ1SJPTuwnR-8" target="9_OVkmjQnJQ1SJPTuwnR-9" edge="1">
          <mxGeometry relative="1" as="geometry" />
        </mxCell>
        <mxCell id="9_OVkmjQnJQ1SJPTuwnR-45" value="NO" style="rounded=0;orthogonalLoop=1;jettySize=auto;html=1;exitX=1;exitY=0.5;exitDx=0;exitDy=0;exitPerimeter=0;edgeStyle=elbowEdgeStyle;entryX=0.5;entryY=0;entryDx=0;entryDy=0;" parent="1" source="9_OVkmjQnJQ1SJPTuwnR-8" target="9_OVkmjQnJQ1SJPTuwnR-54" edge="1">
          <mxGeometry relative="1" as="geometry">
            <mxPoint x="400" y="260" as="targetPoint" />
            <Array as="points">
              <mxPoint x="430" y="590" />
              <mxPoint x="390" y="300" />
            </Array>
          </mxGeometry>
        </mxCell>
        <mxCell id="9_OVkmjQnJQ1SJPTuwnR-8" value="did allocation of memory&lt;br&gt;work as expected?" style="strokeWidth=2;html=1;shape=mxgraph.flowchart.decision;whiteSpace=wrap;" parent="1" vertex="1">
          <mxGeometry x="90" y="-20" width="210" height="200" as="geometry" />
        </mxCell>
        <mxCell id="9_OVkmjQnJQ1SJPTuwnR-30" style="edgeStyle=orthogonalEdgeStyle;rounded=0;orthogonalLoop=1;jettySize=auto;html=1;entryX=1;entryY=0.5;entryDx=0;entryDy=0;" parent="1" source="9_OVkmjQnJQ1SJPTuwnR-9" target="9_OVkmjQnJQ1SJPTuwnR-11" edge="1">
          <mxGeometry relative="1" as="geometry" />
        </mxCell>
        <mxCell id="9_OVkmjQnJQ1SJPTuwnR-31" style="edgeStyle=orthogonalEdgeStyle;rounded=0;orthogonalLoop=1;jettySize=auto;html=1;entryX=1;entryY=0.5;entryDx=0;entryDy=0;" parent="1" source="9_OVkmjQnJQ1SJPTuwnR-11" target="9_OVkmjQnJQ1SJPTuwnR-13" edge="1">
          <mxGeometry relative="1" as="geometry" />
        </mxCell>
        <mxCell id="9_OVkmjQnJQ1SJPTuwnR-11" value="divide items in pth using separator &quot;:&quot; into&lt;br&gt;string tokens that are saved into path_array&lt;br&gt;as strings which are members of the array" style="rounded=1;whiteSpace=wrap;html=1;absoluteArcSize=1;arcSize=14;strokeWidth=2;" parent="1" vertex="1">
          <mxGeometry x="-440" y="290" width="240" height="120" as="geometry" />
        </mxCell>
        <mxCell id="9_OVkmjQnJQ1SJPTuwnR-15" value="" style="edgeStyle=orthogonalEdgeStyle;rounded=0;orthogonalLoop=1;jettySize=auto;html=1;" parent="1" source="9_OVkmjQnJQ1SJPTuwnR-13" target="9_OVkmjQnJQ1SJPTuwnR-14" edge="1">
          <mxGeometry relative="1" as="geometry" />
        </mxCell>
        <mxCell id="9_OVkmjQnJQ1SJPTuwnR-13" value="make temp to be the value of the first element of the path_array&lt;br&gt;&lt;br&gt;this should be a string like&lt;br&gt;&quot;/usr/bin" style="rounded=1;whiteSpace=wrap;html=1;absoluteArcSize=1;arcSize=14;strokeWidth=2;" parent="1" vertex="1">
          <mxGeometry x="-660" y="290" width="150" height="120" as="geometry" />
        </mxCell>
        <mxCell id="9_OVkmjQnJQ1SJPTuwnR-21" style="edgeStyle=orthogonalEdgeStyle;rounded=0;orthogonalLoop=1;jettySize=auto;html=1;entryX=0;entryY=0.5;entryDx=0;entryDy=0;entryPerimeter=0;" parent="1" source="9_OVkmjQnJQ1SJPTuwnR-14" target="9_OVkmjQnJQ1SJPTuwnR-17" edge="1">
          <mxGeometry relative="1" as="geometry" />
        </mxCell>
        <mxCell id="9_OVkmjQnJQ1SJPTuwnR-14" value="attach the &quot;/&quot; character to the end of the temp string&lt;br&gt;&lt;br&gt;then attach the requested command from the shell&lt;br&gt;e.g ls&lt;br&gt;&lt;br&gt;i.e it should now be&amp;nbsp;&lt;br&gt;&quot;/usr/bin/ls&quot;&lt;br&gt;&lt;br&gt;this is in temp variable" style="rounded=1;whiteSpace=wrap;html=1;absoluteArcSize=1;arcSize=14;strokeWidth=2;" parent="1" vertex="1">
          <mxGeometry x="-675" y="500" width="180" height="160" as="geometry" />
        </mxCell>
        <mxCell id="9_OVkmjQnJQ1SJPTuwnR-22" value="No" style="edgeStyle=orthogonalEdgeStyle;rounded=0;orthogonalLoop=1;jettySize=auto;html=1;entryX=0.5;entryY=0;entryDx=0;entryDy=0;entryPerimeter=0;" parent="1" source="9_OVkmjQnJQ1SJPTuwnR-17" target="9_OVkmjQnJQ1SJPTuwnR-19" edge="1">
          <mxGeometry relative="1" as="geometry" />
        </mxCell>
        <mxCell id="9_OVkmjQnJQ1SJPTuwnR-40" value="Yes" style="edgeStyle=orthogonalEdgeStyle;rounded=0;orthogonalLoop=1;jettySize=auto;html=1;entryX=0;entryY=0.5;entryDx=0;entryDy=0;entryPerimeter=0;" parent="1" source="9_OVkmjQnJQ1SJPTuwnR-17" target="9_OVkmjQnJQ1SJPTuwnR-39" edge="1">
          <mxGeometry relative="1" as="geometry" />
        </mxCell>
        <mxCell id="9_OVkmjQnJQ1SJPTuwnR-17" value="is temp string a path to an&amp;nbsp;&lt;br&gt;executable?" style="strokeWidth=2;html=1;shape=mxgraph.flowchart.decision;whiteSpace=wrap;" parent="1" vertex="1">
          <mxGeometry x="-345" y="495" width="170" height="170" as="geometry" />
        </mxCell>
        <mxCell id="9_OVkmjQnJQ1SJPTuwnR-23" value="No" style="edgeStyle=orthogonalEdgeStyle;rounded=0;orthogonalLoop=1;jettySize=auto;html=1;entryX=1;entryY=0.5;entryDx=0;entryDy=0;" parent="1" source="9_OVkmjQnJQ1SJPTuwnR-19" target="9_OVkmjQnJQ1SJPTuwnR-20" edge="1">
          <mxGeometry relative="1" as="geometry" />
        </mxCell>
        <mxCell id="9_OVkmjQnJQ1SJPTuwnR-38" value="Yes, currently traversed the whole path_array" style="edgeStyle=orthogonalEdgeStyle;rounded=0;orthogonalLoop=1;jettySize=auto;html=1;" parent="1" source="9_OVkmjQnJQ1SJPTuwnR-19" target="9_OVkmjQnJQ1SJPTuwnR-35" edge="1">
          <mxGeometry relative="1" as="geometry" />
        </mxCell>
        <mxCell id="9_OVkmjQnJQ1SJPTuwnR-19" value="are we at the end of the path_array?" style="strokeWidth=2;html=1;shape=mxgraph.flowchart.decision;whiteSpace=wrap;" parent="1" vertex="1">
          <mxGeometry x="-340" y="775" width="160" height="160" as="geometry" />
        </mxCell>
        <mxCell id="9_OVkmjQnJQ1SJPTuwnR-24" style="edgeStyle=orthogonalEdgeStyle;rounded=0;orthogonalLoop=1;jettySize=auto;html=1;entryX=0.5;entryY=1;entryDx=0;entryDy=0;" parent="1" source="9_OVkmjQnJQ1SJPTuwnR-20" target="9_OVkmjQnJQ1SJPTuwnR-14" edge="1">
          <mxGeometry relative="1" as="geometry" />
        </mxCell>
        <mxCell id="9_OVkmjQnJQ1SJPTuwnR-20" value="Move to the next element of the path_array and make this to be the new value of temp" style="rounded=1;whiteSpace=wrap;html=1;absoluteArcSize=1;arcSize=14;strokeWidth=2;" parent="1" vertex="1">
          <mxGeometry x="-670" y="765" width="170" height="180" as="geometry" />
        </mxCell>
        <mxCell id="9_OVkmjQnJQ1SJPTuwnR-34" value="STOP" style="strokeWidth=2;html=1;shape=mxgraph.flowchart.terminator;whiteSpace=wrap;" parent="1" vertex="1">
          <mxGeometry x="350" y="1130" width="100" height="60" as="geometry" />
        </mxCell>
        <mxCell id="9_OVkmjQnJQ1SJPTuwnR-37" style="edgeStyle=orthogonalEdgeStyle;rounded=0;orthogonalLoop=1;jettySize=auto;html=1;" parent="1" source="9_OVkmjQnJQ1SJPTuwnR-35" target="9_OVkmjQnJQ1SJPTuwnR-51" edge="1">
          <mxGeometry relative="1" as="geometry">
            <mxPoint x="-40" y="1040" as="targetPoint" />
          </mxGeometry>
        </mxCell>
        <mxCell id="9_OVkmjQnJQ1SJPTuwnR-35" value="Return &quot;(nil)&quot;" style="strokeWidth=2;html=1;shape=mxgraph.flowchart.direct_data;whiteSpace=wrap;" parent="1" vertex="1">
          <mxGeometry x="-320" y="1010" width="120" height="60" as="geometry" />
        </mxCell>
        <mxCell id="9_OVkmjQnJQ1SJPTuwnR-44" style="edgeStyle=none;rounded=0;orthogonalLoop=1;jettySize=auto;html=1;entryX=0;entryY=0.5;entryDx=0;entryDy=0;entryPerimeter=0;" parent="1" source="9_OVkmjQnJQ1SJPTuwnR-36" target="9_OVkmjQnJQ1SJPTuwnR-49" edge="1">
          <mxGeometry relative="1" as="geometry">
            <mxPoint x="320" y="1060" as="targetPoint" />
          </mxGeometry>
        </mxCell>
        <mxCell id="9_OVkmjQnJQ1SJPTuwnR-36" value="returned to execve function&lt;br&gt;page 2" style="verticalLabelPosition=bottom;verticalAlign=top;html=1;shape=offPageConnector;rounded=0;size=0.5000000000000152;" parent="1" vertex="1">
          <mxGeometry x="-20" y="1090" width="30" height="30" as="geometry" />
        </mxCell>
        <mxCell id="9_OVkmjQnJQ1SJPTuwnR-41" style="rounded=0;orthogonalLoop=1;jettySize=auto;html=1;entryX=0.5;entryY=0;entryDx=0;entryDy=0;entryPerimeter=0;" parent="1" source="9_OVkmjQnJQ1SJPTuwnR-39" target="9_OVkmjQnJQ1SJPTuwnR-51" edge="1">
          <mxGeometry relative="1" as="geometry">
            <mxPoint x="-5" y="1010" as="targetPoint" />
          </mxGeometry>
        </mxCell>
        <mxCell id="9_OVkmjQnJQ1SJPTuwnR-39" value="Return temp&lt;br&gt;as a string" style="strokeWidth=2;html=1;shape=mxgraph.flowchart.direct_data;whiteSpace=wrap;" parent="1" vertex="1">
          <mxGeometry x="-55" y="550" width="100" height="60" as="geometry" />
        </mxCell>
        <mxCell id="9_OVkmjQnJQ1SJPTuwnR-42" value="" style="group" parent="1" vertex="1" connectable="0">
          <mxGeometry x="-100" y="290" width="240" height="120" as="geometry" />
        </mxCell>
        <mxCell id="9_OVkmjQnJQ1SJPTuwnR-9" value="Acquire the path variable from the environment and save it&#39;s value in a local variable pth.&amp;nbsp;" style="rounded=1;whiteSpace=wrap;html=1;absoluteArcSize=1;arcSize=14;strokeWidth=2;" parent="9_OVkmjQnJQ1SJPTuwnR-42" vertex="1">
          <mxGeometry width="190" height="120" as="geometry" />
        </mxCell>
        <mxCell id="9_OVkmjQnJQ1SJPTuwnR-10" value="pth will hold the location of binaries&lt;br&gt;on the system separated by a colon&lt;br&gt;&lt;br&gt;this can be used to separate them&lt;br&gt;and check if the binary we&#39;re looking for is&lt;br&gt;in either of these locations" style="strokeWidth=2;html=1;shape=mxgraph.flowchart.annotation_2;align=left;labelPosition=right;pointerEvents=1;" parent="9_OVkmjQnJQ1SJPTuwnR-42" vertex="1">
          <mxGeometry x="190" y="20" width="50" height="100" as="geometry" />
        </mxCell>
        <mxCell id="9_OVkmjQnJQ1SJPTuwnR-43" value="" style="group" parent="1" vertex="1" connectable="0">
          <mxGeometry x="-90" y="-650" width="150" height="100" as="geometry" />
        </mxCell>
        <mxCell id="9_OVkmjQnJQ1SJPTuwnR-1" value="START" style="strokeWidth=2;html=1;shape=mxgraph.flowchart.start_1;whiteSpace=wrap;" parent="9_OVkmjQnJQ1SJPTuwnR-43" vertex="1">
          <mxGeometry y="20" width="100" height="60" as="geometry" />
        </mxCell>
        <mxCell id="9_OVkmjQnJQ1SJPTuwnR-2" value="the function starts with input&lt;br&gt;from the prompt converted to&lt;br&gt;and array of strings named cmd&lt;br&gt;&lt;br&gt;This same array of strings is named argv&lt;br&gt;in execve call" style="strokeWidth=2;html=1;shape=mxgraph.flowchart.annotation_2;align=left;labelPosition=right;pointerEvents=1;" parent="9_OVkmjQnJQ1SJPTuwnR-43" vertex="1">
          <mxGeometry x="100" width="50" height="100" as="geometry" />
        </mxCell>
        <mxCell id="9_OVkmjQnJQ1SJPTuwnR-48" style="edgeStyle=elbowEdgeStyle;rounded=0;orthogonalLoop=1;jettySize=auto;elbow=vertical;html=1;entryX=0;entryY=0.5;entryDx=0;entryDy=0;exitX=1;exitY=0.5;exitDx=0;exitDy=0;exitPerimeter=0;" parent="1" source="9_OVkmjQnJQ1SJPTuwnR-46" target="9_OVkmjQnJQ1SJPTuwnR-36" edge="1">
          <mxGeometry relative="1" as="geometry">
            <mxPoint x="-110" y="1150" as="targetPoint" />
            <Array as="points">
              <mxPoint x="-590" y="1105" />
              <mxPoint x="-650" y="1170" />
              <mxPoint x="-450" y="1120" />
            </Array>
          </mxGeometry>
        </mxCell>
        <mxCell id="9_OVkmjQnJQ1SJPTuwnR-46" value="Return cmd[0]" style="strokeWidth=2;html=1;shape=mxgraph.flowchart.direct_data;whiteSpace=wrap;" parent="1" vertex="1">
          <mxGeometry x="-900" y="1080" width="130" height="50" as="geometry" />
        </mxCell>
        <mxCell id="9_OVkmjQnJQ1SJPTuwnR-50" style="edgeStyle=elbowEdgeStyle;rounded=0;orthogonalLoop=1;jettySize=auto;elbow=vertical;html=1;entryX=0.5;entryY=0;entryDx=0;entryDy=0;entryPerimeter=0;" parent="1" source="9_OVkmjQnJQ1SJPTuwnR-49" target="9_OVkmjQnJQ1SJPTuwnR-34" edge="1">
          <mxGeometry relative="1" as="geometry" />
        </mxCell>
        <mxCell id="9_OVkmjQnJQ1SJPTuwnR-49" value="" style="verticalLabelPosition=bottom;verticalAlign=top;html=1;shape=mxgraph.flowchart.on-page_reference;" parent="1" vertex="1">
          <mxGeometry x="380" y="1085" width="40" height="40" as="geometry" />
        </mxCell>
        <mxCell id="9_OVkmjQnJQ1SJPTuwnR-52" style="edgeStyle=none;rounded=0;orthogonalLoop=1;jettySize=auto;html=1;entryX=0.433;entryY=-0.013;entryDx=0;entryDy=0;entryPerimeter=0;elbow=vertical;" parent="1" source="9_OVkmjQnJQ1SJPTuwnR-51" target="9_OVkmjQnJQ1SJPTuwnR-36" edge="1">
          <mxGeometry relative="1" as="geometry" />
        </mxCell>
        <mxCell id="9_OVkmjQnJQ1SJPTuwnR-51" value="" style="verticalLabelPosition=bottom;verticalAlign=top;html=1;shape=mxgraph.flowchart.on-page_reference;" parent="1" vertex="1">
          <mxGeometry x="-20" y="1027.5" width="25" height="25" as="geometry" />
        </mxCell>
        <mxCell id="9_OVkmjQnJQ1SJPTuwnR-55" style="edgeStyle=elbowEdgeStyle;rounded=0;orthogonalLoop=1;jettySize=auto;html=1;entryX=0.5;entryY=0;entryDx=0;entryDy=0;entryPerimeter=0;" parent="1" source="9_OVkmjQnJQ1SJPTuwnR-54" target="9_OVkmjQnJQ1SJPTuwnR-49" edge="1">
          <mxGeometry relative="1" as="geometry" />
        </mxCell>
        <mxCell id="9_OVkmjQnJQ1SJPTuwnR-54" value="Print Error" style="shape=parallelogram;html=1;strokeWidth=2;perimeter=parallelogramPerimeter;whiteSpace=wrap;rounded=1;arcSize=32;size=0.15000000000000002;" parent="1" vertex="1">
          <mxGeometry x="380" y="680" width="100" height="60" as="geometry" />
        </mxCell>
        <mxCell id="suZuh3gtWMFQQHy69AxI-1" value="&lt;b&gt;Which Function Control Flow&lt;/b&gt;" style="text;html=1;strokeColor=none;fillColor=none;align=center;verticalAlign=middle;whiteSpace=wrap;rounded=0;" parent="1" vertex="1">
          <mxGeometry x="-160" y="-710" width="300" height="30" as="geometry" />
        </mxCell>
      </root>
    </mxGraphModel>
  </diagram>
</mxfile>
